<svg xmlns="http://www.w3.org/2000/svg" viewBox="0 0 256 256">
    <path fill="#fff" d="M128 23.06c34.18 0 38.23.13 51.72.75 12.48.57 19.26 2.65 23.77 4.4a39.66 39.66 0 0114.72 9.58 39.66 39.66 0 019.57 14.72c1.76 4.51 3.84 11.29 4.41 23.77.62 13.5.75 17.54.75 51.72s-.13 38.23-.75 51.72c-.57 12.48-2.65 19.26-4.4 23.77a39.66 39.66 0 01-9.58 14.72 39.66 39.66 0 01-14.72 9.57c-4.51 1.76-11.29 3.84-23.77 4.41-13.5.62-17.54.75-51.72.75s-38.23-.13-51.72-.75c-12.48-.57-19.26-2.65-23.77-4.4a39.65 39.65 0 01-14.72-9.58 39.66 39.66 0 01-9.57-14.72c-1.76-4.51-3.84-11.29-4.41-23.77-.62-13.5-.75-17.54-.75-51.72s.13-38.23.75-51.72c.57-12.48 2.65-19.26 4.4-23.77a39.66 39.66 0 019.58-14.72 39.66 39.66 0 0114.72-9.57c4.51-1.76 11.29-3.84 23.77-4.41 13.5-.62 17.54-.75 51.72-.75M128 0C93.24 0 88.88.15 75.23.77 61.6 1.39 52.3 3.56 44.15 6.72a62.74 62.74 0 00-22.67 14.76A62.74 62.74 0 006.72 44.16C3.56 52.3 1.39 61.6.77 75.23.15 88.88 0 93.23 0 128c0 34.76.15 39.12.77 52.77.62 13.63 2.79 22.93 5.95 31.08a62.75 62.75 0 0014.76 22.67 62.74 62.74 0 0022.67 14.76c8.15 3.16 17.45 5.33 31.08 5.95 13.65.62 18 .77 52.77.77 34.76 0 39.12-.15 52.77-.77 13.63-.62 22.93-2.79 31.07-5.95a62.74 62.74 0 0022.68-14.76 62.74 62.74 0 0014.76-22.67c3.16-8.15 5.33-17.45 5.95-31.08.62-13.65.77-18 .77-52.77 0-34.76-.15-39.12-.77-52.77-.62-13.63-2.79-22.93-5.95-31.07a62.74 62.74 0 00-14.76-22.68 62.74 62.74 0 00-22.68-14.76C203.7 3.56 194.4 1.39 180.77.77 167.12.15 162.77 0 128 0zm0 62.27a65.73 65.73 0 100 131.46 65.73 65.73 0 000-131.46zm0 108.4a42.67 42.67 0 110-85.34 42.67 42.67 0 010 85.34zm83.69-111a15.36 15.36 0 11-30.72 0 15.36 15.36 0 0130.72 0z" />
</svg>