<svg id="visual" viewBox="0 0 1920 2000" width="1920" height="2000" xmlns="http://www.w3.org/2000/svg" xmlns:xlink="http://www.w3.org/1999/xlink" version="1.1">
    <rect x="0" y="0" width="1920" height="2000" fill="#612626"></rect>
    <g fill="none" stroke="#4f1a1a" stroke-width="2">
        <circle r="33" cx="1291" cy="632"></circle>
        <circle r="1" cx="1807" cy="1817"></circle>
        <circle r="1" cx="1024" cy="1478"></circle>
        <circle r="21" cx="672" cy="1895"></circle>
        <circle r="24" cx="1373" cy="439"></circle>
        <circle r="10" cx="812" cy="706"></circle>
        <circle r="12" cx="1631" cy="1545"></circle>
        <circle r="26" cx="622" cy="1441"></circle>
        <circle r="14" cx="1049" cy="876"></circle>
        <circle r="30" cx="1595" cy="42"></circle>
        <circle r="3" cx="117" cy="46"></circle>
        <circle r="6" cx="952" cy="40"></circle>
        <circle r="24" cx="235" cy="477"></circle>
        <circle r="21" cx="114" cy="896"></circle>
        <circle r="16" cx="750" cy="1849"></circle>
        <circle r="10" cx="1863" cy="764"></circle>
        <circle r="12" cx="1180" cy="41"></circle>
        <circle r="11" cx="211" cy="1420"></circle>
        <circle r="27" cx="110" cy="1496"></circle>
        <circle r="22" cx="1138" cy="1962"></circle>
        <circle r="7" cx="24" cy="813"></circle>
        <circle r="26" cx="1369" cy="1885"></circle>
        <circle r="24" cx="1177" cy="1872"></circle>
        <circle r="20" cx="1329" cy="1603"></circle>
        <circle r="23" cx="197" cy="1894"></circle>
        <circle r="6" cx="1722" cy="1579"></circle>
        <circle r="29" cx="1877" cy="543"></circle>
        <circle r="25" cx="1408" cy="540"></circle>
        <circle r="5" cx="1192" cy="913"></circle>
        <circle r="6" cx="86" cy="489"></circle>
        <circle r="25" cx="1421" cy="1255"></circle>
        <circle r="17" cx="729" cy="968"></circle>
        <circle r="0" cx="877" cy="397"></circle>
        <circle r="8" cx="1331" cy="1825"></circle>
        <circle r="16" cx="469" cy="754"></circle>
        <circle r="28" cx="985" cy="483"></circle>
        <circle r="29" cx="1638" cy="654"></circle>
        <circle r="4" cx="1682" cy="411"></circle>
        <circle r="24" cx="686" cy="429"></circle>
        <circle r="6" cx="77" cy="1175"></circle>
        <circle r="10" cx="1586" cy="1007"></circle>
        <circle r="19" cx="655" cy="1017"></circle>
        <circle r="14" cx="692" cy="353"></circle>
        <circle r="15" cx="515" cy="1023"></circle>
        <circle r="1" cx="1674" cy="1288"></circle>
        <circle r="1" cx="1316" cy="1289"></circle>
        <circle r="6" cx="1155" cy="1712"></circle>
        <circle r="16" cx="494" cy="164"></circle>
        <circle r="24" cx="962" cy="1176"></circle>
        <circle r="26" cx="614" cy="327"></circle>
        <circle r="18" cx="93" cy="1075"></circle>
        <circle r="12" cx="932" cy="1357"></circle>
        <circle r="31" cx="1056" cy="742"></circle>
        <circle r="19" cx="617" cy="1357"></circle>
        <circle r="0" cx="507" cy="616"></circle>
        <circle r="10" cx="569" cy="1628"></circle>
        <circle r="30" cx="1175" cy="200"></circle>
        <circle r="17" cx="1571" cy="433"></circle>
        <circle r="9" cx="791" cy="1604"></circle>
        <circle r="15" cx="675" cy="572"></circle>
        <circle r="6" cx="1330" cy="95"></circle>
        <circle r="27" cx="1914" cy="1066"></circle>
        <circle r="0" cx="1123" cy="466"></circle>
        <circle r="2" cx="295" cy="739"></circle>
        <circle r="23" cx="651" cy="1598"></circle>
        <circle r="27" cx="501" cy="1877"></circle>
        <circle r="10" cx="1886" cy="252"></circle>
        <circle r="10" cx="274" cy="1101"></circle>
        <circle r="2" cx="1793" cy="1405"></circle>
        <circle r="11" cx="1072" cy="1647"></circle>
        <circle r="16" cx="1563" cy="1939"></circle>
        <circle r="9" cx="989" cy="394"></circle>
        <circle r="19" cx="1521" cy="582"></circle>
        <circle r="1" cx="964" cy="1712"></circle>
    </g>
</svg>