<svg id="layered-waves-haikei" xmlns="http://www.w3.org/2000/svg" width="1920" height="85.052" viewBox="0 0 1920 85.052">
    <path id="Tracé_17" d="M0,63l40,.5C80,64,160,65,240,69.8c80,4.9,160,13.5,240,15s160-4.1,240-6C800,77,880,79,960,81s160,4,240,.7c80-3.4,160-12,240-18.2s160-9.8,240-6,160,15.2,200,20.8l40,5.7V0H0Z" fill="#606060"/>
    <path id="Tracé_18" d="M0,69l40-4.2C80,60.7,160,52.3,240,54S400,67.3,480,72.8a1602.357,1602.357,0,0,0,240-1.6c80-6.5,160-18.9,240-24.4s160-4.1,240,2C1280,55,1360,66,1440,67s160-8,240-10.5S1840,58,1880,60l40,2V0H0Z" fill="#635251"/>
    <path id="Tracé_19" d="M0,32l40-.2c40-.1,120-.5,200,2.2s160,8.3,240,13.5S640,57.3,720,57s160-5.7,240-8.2,160-2.1,240-4.8,160-8.3,240-10.3,160-.4,240,3.1,160,8.9,200,11.5l40,2.7V0H0Z" fill="#644442"/>
    <path id="Tracé_20" d="M0,22l40,.7c40,.6,120,2,200,5.5s160,9.1,240,8.6,160-7.1,240-7c80,.2,160,7.2,240,6.9,80-.4,160-8,240-10.7s160-.3,240,.3c80,.7,160-.3,240-.1,80,.1,160,1.5,200,2.1l40,.7V0H0Z" fill="#633634"/>
    <path id="Tracé_21" d="M0,25l40-2.2c40-2.1,120-6.5,200-9s160-3.1,240-.5c80,2.7,160,8.7,240,9,80,.4,160-5,240-5.6,80-.7,160,3.3,240,3.1,80-.1,160-4.5,240-5.1,80-.7,160,2.3,240,4.5,80,2.1,160,3.5,200,4.1l40,.7V0H0Z" fill="#612626"/>
</svg>
